# xmcd
#
# Track frame offsets:
#	150
#	17116
#	37066
#	53661
#	68715
#	83846
#	105606
#	120288
#	136424
#	149478
#
# Disc length: 2278 seconds
#
# Revision: 7
# Processed by: cddbd v1.5.2PL0 Copyright (c) Steve Scherf et al.
# Submitted via: EZCDAudioConverter 7.1.5.1
#
DISCID=8508e40a
DTITLE=周杰伦 - 周杰伦的睡前故事
DYEAR=2016
DGENRE=
TTITLE0=睡前故事
TTITLE1=说走就走
TTITLE2=一点点
TTITLE3=前世情人
TTITLE4=英雄
TTITLE5=不该 with aMEI
TTITLE6=土尔其冰淇淋
TTITLE7=告白气球
TTITLE8=Now You See Me 现在你看见我
TTITLE9=爱情废柴
EXTD=
EXTT0=
EXTT1=
EXTT2=
EXTT3=
EXTT4=
EXTT5=
EXTT6=
EXTT7=
EXTT8=
EXTT9=
PLAYORDER=
